<svg xmlns="http://www.w3.org/2000/svg" viewBox="0 0 40 40">
    <title>bash</title>
    <g id="Bash">
        <path d="M21.49.89a2.11,2.11,0,0,0-3,0L13.33,6.08l6,6A2.11,2.11,0,0,1,22.2,15l1.17,1.17,6.68-6.67Z" style="fill:#ff8080"/>
        <path d="M18.21,14a2.11,2.11,0,0,1,.24-1l-6-6L9.89,9.52,19.34,19l.09-3.08A2.12,2.12,0,0,1,18.21,14Z" style="fill:#ff8080"/>
        <path d="M20.69,16.06l-.09,2.83L22.47,17,21.3,15.85A2.21,2.21,0,0,1,20.69,16.06Z" style="fill:#ff8080"/>
        <path d="M19.08,20.41h0L9.45,30.05.89,21.49a2.11,2.11,0,0,1,0-3L9.47,9.93l9.59,9.59A1.91,1.91,0,0,1,19.08,20.41Z" style="fill:#727de0"/>
        <path d="M30.07,30.53l-8.58,8.58a2.11,2.11,0,0,1-3,0L9.86,30.46l9.41-9.4-.16,5.17a2.11,2.11,0,0,0,.78,4.07,2.11,2.11,0,0,0,.49-4.17L20.54,21Z" style="fill:#ffe680"/>
        <path d="M39.11,21.49l-8.62,8.63L21,20.61a1.94,1.94,0,0,1,0-1.28l1.89-1.89,3.19,3.19a2,2,0,1,0,.89-.91l-3.18-3.18,6.67-6.68,8.65,8.65A2.11,2.11,0,0,1,39.11,21.49Z" style="fill:#8dd35f"/>
    </g>
</svg>