<svg id="Layer_1" data-name="Layer 1" xmlns="http://www.w3.org/2000/svg" viewBox="0 0 50 50"><defs><style>.cls-1{fill:#0ca3d1;}.cls-2{fill:#fff;}</style></defs><title>sqs</title><path class="cls-1" d="M50,25A25,25,0,1,1,25,0,25,25,0,0,1,50,25Z"/><path class="cls-2" d="M13.24,26.3H18.5c1.17,0,3.17.51,3.17,2.75,0,1.16-.93,2.53-2.09,2.53H13.24ZM30.12,15.76h9.47v3.17H30.12ZM38.33,26.3h-7a3.43,3.43,0,0,1,3.5-3.13,3.48,3.48,0,0,1,3.46,3.13Zm-7.17,2.12H42.75v-.54A7.63,7.63,0,0,0,34.87,20,7.65,7.65,0,0,0,27,27.88a7.66,7.66,0,0,0,7.92,7.91c4.75,0,7-2.71,7.73-6.33H38.33c-.39,1.86-1.49,3.17-3.46,3.17s-3.56-1.85-3.71-4.21Zm-5.25,1a5.34,5.34,0,0,0-3.59-5,5.27,5.27,0,0,0-2.74-9.76H9V35.79H19.58a6.35,6.35,0,0,0,6.33-6.33ZM18.5,23.17H13.24V18.93H18.5a2.12,2.12,0,1,1,0,4.24Z"/></svg>