<svg id="Layer_1" data-name="Layer 1"
    xmlns="http://www.w3.org/2000/svg" viewBox="0 0 38.5 47.14">
    <defs>
        <style>.cls-1{fill:none;stroke:#ddd;stroke-miterlimit:10;stroke-width:1.5px;}</style>
    </defs>
    <path class="cls-1" d="M25.2,28.81A18.17,18.17,0,0,1,26.15,47,18.2,18.2,0,0,1,9,20.55,18.16,18.16,0,0,1,25.2,28.81Zm.31.52a4.07,4.07,0,0,1,.31-.53A17.93,17.93,0,0,1,34,22,18.18,18.18,0,0,1,42,20.55a18.2,18.2,0,0,1-1,18.17A18,18,0,0,1,26.15,47c-.22,0-.43,0-.64,0M34,22a18.2,18.2,0,0,0-8.46-20.5A18.19,18.19,0,0,0,17,22" transform="translate(-6.25 -0.61)"/>
</svg>