<svg id="Layer_1" data-name="Layer 1" xmlns="http://www.w3.org/2000/svg" viewBox="0 0 50 50"><defs><style>.cls-1{fill:#2797cf;}.cls-2{fill:#fff;}</style></defs><title>sqs</title><path class="cls-1" d="M50,25A25,25,0,1,1,25,0,25,25,0,0,1,50,25Z"/><polygon class="cls-2" points="10.83 24.03 10.83 38.54 17.74 38.54 17.74 22.87 17.74 18.79 10.83 18.79 10.83 24.03"/><path class="cls-2" d="M14.29,8.92a3.46,3.46,0,1,0,3.45,3.46A3.46,3.46,0,0,0,14.29,8.92Z"/><path class="cls-2" d="M40.29,24.86c-.46-3.73-2.17-6.07-7.2-6.07-3,0-5,1.11-5.81,2.67h-.09V18.79h-5.5V38.54h5.75V28.75c0-2.58.49-5.08,3.68-5.08s3.4,2.95,3.4,5.25v9.62h5.93V27.69h0A22.74,22.74,0,0,0,40.29,24.86Z"/></svg>