<svg xmlns="http://www.w3.org/2000/svg" viewBox="0 0 40 40"><title>react</title><g id="react"><path d="M20,13.63c11,0,17.74,3.71,17.74,6.37S31,26.37,20,26.37,2.26,22.66,2.26,20,9,13.63,20,13.63m0-1.74C9.25,11.89.53,15.52.53,20S9.25,28.11,20,28.11,39.47,24.48,39.47,20,30.75,11.89,20,11.89Z" style="fill:#61dafb"/><path d="M27.82,4.39h0a2.07,2.07,0,0,1,1.05.25c1.19.69,1.66,3,1.26,6.08a35.32,35.32,0,0,1-4.61,12.47c-4.66,8.07-10.35,12.42-13.34,12.42a2.07,2.07,0,0,1-1-.25c-1.19-.69-1.66-3-1.26-6.08a35.32,35.32,0,0,1,4.61-12.47C19.14,8.74,24.83,4.39,27.82,4.39m0-1.73C23.71,2.66,17.57,8,13,16,7.6,25.26,6.39,34.62,10.27,36.86a3.72,3.72,0,0,0,1.91.48C16.29,37.34,22.43,32,27,24.05c5.38-9.31,6.59-18.67,2.71-20.91a3.72,3.72,0,0,0-1.91-.48Z" style="fill:#61dafb"/><path d="M12.18,4.39h0c3,0,8.68,4.35,13.34,12.42a35.32,35.32,0,0,1,4.61,12.47c.4,3.12-.07,5.39-1.26,6.08a2.07,2.07,0,0,1-1.05.25c-3,0-8.68-4.35-13.34-12.42A35.32,35.32,0,0,1,9.87,10.72c-.4-3.12.07-5.39,1.26-6.08a2.07,2.07,0,0,1,1-.25m0-1.73a3.72,3.72,0,0,0-1.91.48C6.39,5.38,7.6,14.74,13,24.05c4.59,8,10.73,13.29,14.84,13.29a3.72,3.72,0,0,0,1.91-.48C33.61,34.62,32.4,25.26,27,16,22.43,8,16.29,2.66,12.18,2.66Z" style="fill:#61dafb"/><circle cx="20" cy="20" r="3.09" style="fill:#61dafb"/></g></svg>