<svg id="Layer_1" data-name="Layer 1"
    xmlns="http://www.w3.org/2000/svg" viewBox="0 0 50 50">
    <defs>
        <style>.cls-1{fill:#1d2633;}.cls-2{fill:#fff;}</style>
    </defs>
    <title>sqs</title>
    <path class="cls-1" d="M50,25A25,25,0,1,1,25,0,25,25,0,0,1,50,25Z"/>
    <path class="cls-2" d="M39.81,17.37a12,12,0,0,1-3.49.94A6,6,0,0,0,39,15a12.15,12.15,0,0,1-3.86,1.46,6,6,0,0,0-10.35,5.45,17.32,17.32,0,0,1-12.52-6.25,5.84,5.84,0,0,0-.83,3,6,6,0,0,0,2.71,5,6.11,6.11,0,0,1-2.76-.75V23a5.78,5.78,0,0,0,.42,2.17,6.06,6.06,0,0,0,4.46,3.7,6.05,6.05,0,0,1-1.6.21,6.31,6.31,0,0,1-1.15-.11,6.06,6.06,0,0,0,5.68,4.15,12.29,12.29,0,0,1-7.55,2.57,11.64,11.64,0,0,1-1.45-.09,17.4,17.4,0,0,0,9.32,2.69A16.91,16.91,0,0,0,36.38,24.85a16.52,16.52,0,0,0,.41-3.61c0-.26,0-.51,0-.77A12.4,12.4,0,0,0,39.81,17.37Z"/>
</svg>